<svg xmlns="http://www.w3.org/2000/svg" width="116.194" height="73.444" viewBox="0 0 116.194 73.444"><defs><style>.a{opacity:0.6;}.b{fill:#bbc7e2;}.c{fill:#92a2c6;}.d{fill:#4770cc;}.e{fill:#395db1;}.f,.i,.j{fill:#c4cfe8;}.g{fill:#dce3f2;}.h{fill:#fff;}.i{opacity:0.3;}.j{opacity:0.2;}</style></defs><g transform="translate(-16 -135.339)"><g class="a" transform="translate(16 135.339)"><path class="b" d="M46.04,1.055a6.084,6.084,0,0,0-6.848,0L9.272,21.426a5.156,5.156,0,0,0-2.254,4.262V69.614A3.589,3.589,0,0,0,10.607,73.2H74.625a3.589,3.589,0,0,0,3.589-3.589V25.688a5.156,5.156,0,0,0-2.254-4.262Z" transform="translate(-7.018 -0.001)"/><path class="c" d="M74.625,176.53a3.589,3.589,0,0,0,3.589-3.589V129.015a5.156,5.156,0,0,0-2.254-4.262l-6.014-4.095L44.5,136.059a3.643,3.643,0,0,1-3.752.01l-25.324-15.5-6.151,4.188a5.156,5.156,0,0,0-2.254,4.262v43.926a3.589,3.589,0,0,0,3.589,3.589Z" transform="translate(-7.018 -103.327)"/><path class="d" d="M123.483,112.761H70.416V65.74a6.046,6.046,0,0,1,6.046-6.046h40.975a6.046,6.046,0,0,1,6.046,6.046v47.021Z" transform="translate(-61.352 -51.159)"/><path class="e" d="M98.833,138.476a3.644,3.644,0,0,1-3.752.01l-24.666-15.1v43.961h53.067V123.557Z" transform="translate(-61.352 -105.744)"/><path class="f" d="M36.164,177.807,7.813,160.451a5.153,5.153,0,0,0-.8,2.748v43.926a3.589,3.589,0,0,0,3.589,3.589H74.625a3.589,3.589,0,0,0,3.589-3.589V163.2a5.152,5.152,0,0,0-.708-2.6L49.068,177.807A12.481,12.481,0,0,1,36.164,177.807Z" transform="translate(-7.018 -137.511)"/><path class="g" d="M45.844,283.007,17.908,315.084a3.572,3.572,0,0,0,2,.612H83.932a3.571,3.571,0,0,0,2.058-.65L58.1,282.947A12.481,12.481,0,0,1,45.844,283.007Z" transform="translate(-16.351 -242.493)"/><g transform="translate(18.249 14.977)"><path class="h" d="M168.252,106.961H135.764a1.1,1.1,0,1,1,0-2.209h32.488a1.1,1.1,0,0,1,0,2.209Z" transform="translate(-134.659 -104.752)"/><path class="h" d="M168.252,147.061H135.764a1.1,1.1,0,1,1,0-2.209h32.488a1.1,1.1,0,0,1,0,2.209Z" transform="translate(-134.659 -139.119)"/><path class="h" d="M151.007,187.159H135.764a1.1,1.1,0,1,1,0-2.209h15.244a1.1,1.1,0,1,1,0,2.209Z" transform="translate(-134.659 -173.484)"/></g><path class="h" d="M135.763,187.158h7.7l-3.609-2.209h-4.088a1.1,1.1,0,0,0,0,2.209Z" transform="translate(-116.409 -158.506)"/></g><g class="a" transform="translate(93.227 186.111)"><circle class="i" cx="11.336" cy="11.336" r="11.336" transform="translate(0 0)"/><circle class="j" cx="5.314" cy="5.314" r="5.314" transform="translate(28.34 12.045)"/></g></g></svg>